<?xml version="1.0" encoding="utf-8"?>
<!-- Generator: Adobe Illustrator 21.0.2, SVG Export Plug-In . SVG Version: 6.00 Build 0)  -->
<svg version="1.1" id="Layer_1" xmlns="http://www.w3.org/2000/svg" xmlns:xlink="http://www.w3.org/1999/xlink" x="0px" y="0px"
	 viewBox="0 0 45 38" style="enable-background:new 0 0 45 38;" xml:space="preserve">
<style type="text/css">
	.st0{opacity:0.33;}
	.st1{fill:#626774;}
</style>
<g>
	<g id="LWPOLYLINE_28_" class="st0">
		<g>
			<path d="M33.1,25.3H9.8c-0.6,0-1-0.5-1-1V1c0-0.6,0.5-1,1-1h23.3c0.6,0,1,0.5,1,1v23.3C34.1,24.9,33.7,25.3,33.1,25.3z
				 M10.8,23.3h21.2V2H10.8V23.3z"/>
		</g>
	</g>
	<g id="LWPOLYLINE_26_">
		<g>
			<path class="st1" d="M9.8,25.3c-5.2,0-9.5-4.3-9.5-9.5c0-0.6,0.5-1,1-1s1,0.5,1,1c0,4.1,3.3,7.4,7.4,7.4c4.1,0,7.4-3.3,7.4-7.4V2
				H14c-0.6,0-1-0.5-1-1s0.5-1,1-1h4.2c0.6,0,1,0.5,1,1v14.8C19.3,21.1,15,25.3,9.8,25.3z"/>
		</g>
	</g>
	<g id="LWPOLYLINE_27_">
		<g>
			<path class="st1" d="M43.7,24.5c-0.3,0-0.5-0.1-0.7-0.3l-9.9-9.9l-9.9,9.9c-0.3,0.3-0.7,0.4-1.1,0.2c-0.4-0.2-0.6-0.5-0.6-0.9V1
				c0-0.6,0.5-1,1-1h4.2c0.6,0,1,0.5,1,1s-0.5,1-1,1h-3.2v19l8.8-8.8c0.4-0.4,1-0.4,1.4,0l8.8,8.8V2h-3.2c-0.6,0-1-0.5-1-1
				s0.5-1,1-1h4.2c0.6,0,1,0.5,1,1v22.4c0,0.4-0.2,0.8-0.6,0.9C43.9,24.5,43.8,24.5,43.7,24.5z"/>
		</g>
	</g>
	<g id="LWPOLYLINE_30_">
		<g>
			<path class="st1" d="M21.4,38c-0.3,0-0.5-0.1-0.7-0.3l-8.2-8.2c-0.4-0.4-0.4-1,0-1.4c0.4-0.4,1-0.4,1.4,0l7.4,7.4l7.4-7.4
				c0.4-0.4,1-0.4,1.4,0c0.4,0.4,0.4,1,0,1.4l-8.2,8.2C22,37.9,21.7,38,21.4,38z"/>
		</g>
	</g>
</g>
</svg>
