<?xml version="1.0" encoding="utf-8"?>
<!-- Generator: Adobe Illustrator 13.0.0, SVG Export Plug-In . SVG Version: 6.00 Build 14948)  -->
<!DOCTYPE svg PUBLIC "-//W3C//DTD SVG 1.1//EN" "http://www.w3.org/Graphics/SVG/1.1/DTD/svg11.dtd">
<svg version="1.1" id="Layer_1" xmlns="http://www.w3.org/2000/svg" xmlns:xlink="http://www.w3.org/1999/xlink" x="0px" y="0px"
	 width="512px" height="512px" viewBox="0 0 512 512" enable-background="new 0 0 512 512" xml:space="preserve">
<g>
	<g id="Pencil">
		<g>
			<path fill="#d8d8d8" d="M483.908,27.06C466.19,9.278,442.534-0.494,417.441-0.494c-25.108,0-48.719,9.758-66.468,27.515
				L68.213,308.154c-1.68,1.656-2.961,3.656-3.758,5.875L0.457,490.023c-2.063,5.689-0.734,12.096,3.438,16.5
				c3.07,3.221,7.281,4.971,11.617,4.971c1.57,0,3.132-0.221,4.688-0.703l159.184-48.828c2.492-0.75,4.765-2.125,6.617-3.969
				l297.938-297.93c17.781-17.75,27.563-41.39,27.563-66.514C511.486,68.449,501.72,44.817,483.908,27.06z M160.977,434.137
				l-59.576,18.295c-3.477-10.188-8.883-19.217-16.258-26.592c-6.413-6.375-13.858-11.344-21.694-15.375l27.265-74.967h36.796
				v31.998c0,8.844,7.148,16,16,16h28.242L160.977,434.137z M396.504,202.234l-194.95,194.949l5.602-26.357
				c0.991-4.734-0.195-9.643-3.234-13.391c-3.039-3.766-7.602-5.938-12.414-5.938h-31.999v-32c0-8.828-7.172-16-16-16h-25.249
				L308.537,114.3l0.203,0.18c11.702-11.728,27.312-18.179,43.857-18.179c16.563,0,32.188,6.453,43.874,18.179
				c11.702,11.726,18.219,27.312,18.219,43.89C414.691,174.939,408.238,190.51,396.504,202.234z M461.284,137.44l-14.906,14.929
				c-1.438-22.867-10.921-44.179-27.249-60.514c-16.328-16.351-37.655-25.82-60.592-27.25l15.015-14.89l0.031-0.039
				c11.672-11.728,27.28-18.171,43.858-18.171c16.577,0,32.154,6.444,43.843,18.171c11.75,11.733,18.219,27.312,18.219,43.874
				C479.502,110.144,473.065,125.729,461.284,137.44z M356.193,132.19L196.196,292.186c-6.258,6.25-6.258,16.375,0,22.625
				c3.102,3.125,7.219,4.688,11.312,4.688c4.095,0,8.181-1.563,11.313-4.688l159.998-159.996c6.25-6.258,6.25-16.367,0-22.625
				C372.536,125.932,362.442,125.932,356.193,132.19z"/>
		</g>
	</g>
</g>
</svg>
