<?xml version="1.0" encoding="utf-8"?>
<!-- Generator: Adobe Illustrator 13.0.0, SVG Export Plug-In . SVG Version: 6.00 Build 14948)  -->
<!DOCTYPE svg PUBLIC "-//W3C//DTD SVG 1.1//EN" "http://www.w3.org/Graphics/SVG/1.1/DTD/svg11.dtd">
<svg version="1.1" id="Layer_1" xmlns="http://www.w3.org/2000/svg" xmlns:xlink="http://www.w3.org/1999/xlink" x="0px" y="0px"
	 width="512px" height="512px" viewBox="0 0 512 512" enable-background="new 0 0 512 512" xml:space="preserve">
<path fill="#d8d8d8" d="M501.398,93.161c-3.408-5.736-7.561-10.976-12.33-15.541c-6.465-6.215-14.096-11.274-22.502-14.903
	c-9.398-4.058-19.773-6.322-30.635-6.322H75.073c-16.322,0-31.557,5.086-43.997,13.753c-3.244,2.261-6.309,4.75-9.141,7.473
	C15.331,83.938,9.895,91.536,6.02,99.987c-4.167,9.088-6.527,19.167-6.521,29.75v251.524c-0.014,20.424,8.728,39.002,22.435,52.117
	c13.693,13.164,32.56,21.229,53.138,21.227h360.86c0.002,0,0.006,0,0.008,0c20.576,0,39.436-8.063,53.129-21.227
	c13.707-13.117,22.445-31.693,22.432-52.117V129.738C511.51,116.424,507.781,103.905,501.398,93.161z M75.073,95.212h360.859
	c5.395,0,10.467,1.095,15.033,3.033l-171.48,171.479c-6.428,6.404-14.799,9.605-23.755,9.637c-9.431-0.01-19.109-3.67-26.648-11.209
	L59.436,98.508C64.156,96.407,69.439,95.212,75.073,95.212z M472.684,381.264c-0.012,9.314-3.869,17.705-10.502,24.121
	c-6.645,6.369-15.859,10.404-26.25,10.406H75.073c-10.391-0.002-19.606-4.037-26.251-10.406
	c-6.632-6.416-10.492-14.807-10.503-24.121V132.284l163.313,163.313c14.938,14.939,34.601,22.588,54.096,22.58
	c0.04,0,0.081,0,0.121,0c18.43,0,37.063-6.971,51.077-21.004l165.758-165.756V381.264L472.684,381.264z"/>
</svg>
